<?xml version="1.0" encoding="iso-8859-1"?>
<!-- Generator: Adobe Illustrator 16.0.0, SVG Export Plug-In . SVG Version: 6.00 Build 0)  -->
<!DOCTYPE svg PUBLIC "-//W3C//DTD SVG 1.1//EN" "http://www.w3.org/Graphics/SVG/1.1/DTD/svg11.dtd">
<svg version="1.1" id="Capa_1" xmlns="http://www.w3.org/2000/svg" xmlns:xlink="http://www.w3.org/1999/xlink" x="0px" y="0px"
	 width="30px" height="30px" viewBox="0 0 479.517 479.517" style="enable-background:new 0 0 479.517 479.517;"
	 xml:space="preserve">
<g>
	<path d="M389.034,0c-3.315,0-6.495,1.316-8.84,3.661l-42.305,42.305c-0.481,0.481-0.902,1.001-1.29,1.536
		c-0.028,0.027-0.059,0.051-0.087,0.079L47.582,336.513c-0.025,0.024-0.047,0.054-0.072,0.08c-0.538,0.388-1.06,0.812-1.544,1.295
		L3.661,380.195c-4.881,4.882-4.881,12.796,0,17.678c52.649,52.647,122.649,81.644,197.106,81.644c0.005,0,0.003,0,0.008,0
		c74.451,0,144.451-28.996,197.097-81.644c52.648-52.65,81.644-122.65,81.644-197.104c0-74.455-28.995-144.456-81.644-197.106
		C395.528,1.318,392.349,0,389.034,0z M330.196,312.516L227.838,210.16l154.239-19.006
		C379.326,235.342,361.042,277.949,330.196,312.516z M312.508,330.186c-34.403,30.611-77.433,49.053-121.035,51.867l18.967-153.935
		L312.508,330.186z M235.411,184.037L344.996,74.454c21.572,25.371,34.285,56.985,36.931,91.529L235.411,184.037z M184.397,235.053
		L166.3,381.924c-34.635-2.646-66.517-15.459-91.84-36.936L184.397,235.053z M380.196,380.195
		c-47.928,47.929-111.649,74.322-179.428,74.32c-63.597,0-123.621-23.235-170.377-65.695l26.22-26.222
		c33.324,28.997,76.585,44.843,123.173,44.847c0.007,0,0.012,0,0.019,0c58.047,0,116.18-24.841,159.492-68.152
		c40.77-40.77,64.865-93.424,67.846-148.262c2.772-50.997-12.985-98.245-44.537-134.421l26.22-26.219
		c42.459,46.758,65.694,106.781,65.694,170.377C454.516,268.544,428.123,332.266,380.196,380.195z"/>
	<path d="M53.925,342.508h-12.5v-10.666h12.5V342.508z M42.425,341.508h10.5v-8.666h-10.5V341.508z"/>
	<path d="M341.925,50.925h-9.521v-7.354h9.521V50.925z M333.405,49.925h7.521v-5.354h-7.521V49.925z"/>
</g>
<g>
</g>
<g>
</g>
<g>
</g>
<g>
</g>
<g>
</g>
<g>
</g>
<g>
</g>
<g>
</g>
<g>
</g>
<g>
</g>
<g>
</g>
<g>
</g>
<g>
</g>
<g>
</g>
<g>
</g>
</svg>
